<svg xmlns:xlink="http://www.w3.org/1999/xlink" xmlns="http://www.w3.org/2000/svg" width="24" height="24" viewBox="0 0 24 24" fill="none"><path d="M15.2125 6.38424C15.5535 5.94933 16.1819 5.87062 16.6159 6.21236C17.0519 6.55236 17.1278 7.18168 16.7868 7.61568L8.9557 17.6157C8.76778 17.8565 8.48021 17.9973 8.1764 17.9995H8.16859C7.86573 17.9994 7.58021 17.8623 7.38929 17.6264L3.22035 12.4487C2.87535 12.0197 2.94169 11.3894 3.37269 11.0424C3.80268 10.6954 4.43094 10.7658 4.77894 11.1948L8.15785 15.3921L15.2125 6.38424ZM20.2125 6.38424C20.5535 5.94933 21.1809 5.87062 21.6159 6.21236C22.0519 6.55236 22.1278 7.18168 21.7868 7.61568L13.9557 17.6157C13.7678 17.8565 13.4802 17.9973 13.1764 17.9995H13.1686C12.8657 17.9994 12.5802 17.8623 12.3893 17.6264L11.2887 16.2602L12.5543 14.643L13.1578 15.3921L20.2125 6.38424ZM8.37269 11.0424C8.80369 10.6964 9.43294 10.7658 9.77894 11.1958L9.98011 11.4448L8.71253 13.06L8.22035 12.4497C7.87435 12.0197 7.9417 11.3894 8.37269 11.0424Z" fill="#F4A259"/><mask id="mask0_2070_919" style="mask-type:luminance" maskUnits="userSpaceOnUse" x="2" y="5" width="20" height="13"><path d="M15.2125 6.38424C15.5535 5.94933 16.1819 5.87062 16.6159 6.21236C17.0519 6.55236 17.1278 7.18168 16.7868 7.61568L8.9557 17.6157C8.76778 17.8565 8.48021 17.9973 8.1764 17.9995H8.16859C7.86573 17.9994 7.58021 17.8623 7.38929 17.6264L3.22035 12.4487C2.87535 12.0197 2.94169 11.3894 3.37269 11.0424C3.80268 10.6954 4.43094 10.7658 4.77894 11.1948L8.15785 15.3921L15.2125 6.38424ZM20.2125 6.38424C20.5535 5.94933 21.1809 5.87062 21.6159 6.21236C22.0519 6.55236 22.1278 7.18168 21.7868 7.61568L13.9557 17.6157C13.7678 17.8565 13.4802 17.9973 13.1764 17.9995H13.1686C12.8657 17.9994 12.5802 17.8623 12.3893 17.6264L11.2887 16.2602L12.5543 14.643L13.1578 15.3921L20.2125 6.38424ZM8.37269 11.0424C8.80369 10.6964 9.43294 10.7658 9.77894 11.1958L9.98011 11.4448L8.71253 13.06L8.22035 12.4497C7.87435 12.0197 7.9417 11.3894 8.37269 11.0424Z" fill="white"/></mask><g mask="url(#mask0_2070_919)"><rect width="24" height="24" fill="#F4A259"/></g></svg>