<svg xmlns:xlink="http://www.w3.org/1999/xlink" xmlns="http://www.w3.org/2000/svg" width="40" height="40" viewBox="0 0 40 40" fill="none"><rect width="40" height="40" rx="20" fill="#D3AF37"/><g clip-path="url(#clip0_2070_1314)"><path d="M29.75 21.125H11.75V12.6875C11.7491 12.3697 11.8113 12.055 11.9329 11.7614C12.0545 11.4679 12.2331 11.2013 12.4584 10.9773L12.4772 10.9585C12.8303 10.6059 13.2836 10.371 13.7752 10.2857C14.2669 10.2005 14.7729 10.2691 15.224 10.4822C14.7979 11.1906 14.6208 12.0212 14.7209 12.8418C14.8209 13.6625 15.1923 14.4262 15.7761 15.0116L16.2895 15.5249L15.3446 16.4698L16.4052 17.5304L17.3501 16.5855L22.5855 11.3502L23.5303 10.4053L22.4697 9.3447L21.5248 10.2896L21.0115 9.77623C20.3969 9.16336 19.5867 8.78556 18.7222 8.70867C17.8576 8.63178 16.9935 8.86068 16.2804 9.35548C15.5285 8.8806 14.6373 8.67559 13.7535 8.77413C12.8696 8.87267 12.0455 9.2689 11.4166 9.89773L11.3978 9.91648C11.0328 10.2795 10.7434 10.7114 10.5464 11.187C10.3493 11.6627 10.2486 12.1727 10.25 12.6875V21.125H8.75V22.625H10.25V24.0641C10.25 24.185 10.2695 24.3051 10.3077 24.4198L11.7031 28.6057C11.7776 28.8298 11.9208 29.0248 12.1123 29.1629C12.3039 29.301 12.5341 29.3752 12.7703 29.375H13.375L12.8281 31.25H14.3906L14.9375 29.375H24.6922L25.2547 31.25H26.8203L26.2578 29.375H27.2295C27.4657 29.3752 27.696 29.301 27.8876 29.1629C28.0792 29.0248 28.2224 28.8299 28.2969 28.6057L29.6922 24.4198C29.7304 24.3051 29.75 24.185 29.75 24.0641V22.625H31.25V21.125H29.75ZM16.8369 10.8369C17.2501 10.4245 17.8101 10.1929 18.3939 10.1929C18.9776 10.1929 19.5376 10.4245 19.9508 10.8369L20.4641 11.3502L17.3502 14.4641L16.8369 13.9508C16.4245 13.5376 16.193 12.9776 16.193 12.3939C16.193 11.8101 16.4245 11.2501 16.8369 10.8369ZM28.25 24.0031L26.9594 27.875H13.0406L11.75 24.0031V22.625H28.25V24.0031Z" fill="#F6F8FD"/></g><defs><clipPath id="clip0_2070_1314"><rect width="24" height="24" fill="white" transform="translate(8 8)"/></clipPath></defs></svg>