<svg xmlns:xlink="http://www.w3.org/1999/xlink" xmlns="http://www.w3.org/2000/svg" width="40" height="40" viewBox="0 0 40 40" fill="none"><rect width="40" height="40" rx="20" fill="#D3AF37"/><path d="M29.25 23C29.25 22.5238 29.2496 22.2042 29.2327 21.9567C29.2163 21.7162 29.1869 21.5989 29.1549 21.5217L29.1427 21.4931C29.0128 21.2003 28.7751 20.9681 28.4785 20.8451V20.8452C28.4012 20.8132 28.284 20.7837 28.0433 20.7673C27.7958 20.7504 27.4762 20.75 27 20.75H13C12.5238 20.75 12.2042 20.7504 11.9567 20.7673C11.7161 20.7837 11.5988 20.8131 11.5216 20.8451L11.5217 20.8451C11.2154 20.972 10.972 21.2153 10.8451 21.5215L10.8452 21.5216C10.8132 21.5988 10.7837 21.716 10.7673 21.9567C10.7504 22.2042 10.75 22.5238 10.75 23C10.75 23.4762 10.7504 23.7958 10.7673 24.0433C10.7837 24.2839 10.8132 24.4012 10.8451 24.4784L10.8574 24.5069C10.9873 24.7997 11.225 25.032 11.5217 25.1549C11.5988 25.1868 11.7161 25.2163 11.9567 25.2327C12.2042 25.2496 12.5238 25.25 13 25.25H27C27.4762 25.25 27.7958 25.2496 28.0433 25.2327C28.284 25.2163 28.4012 25.1868 28.4785 25.1549C28.7847 25.028 29.028 24.7846 29.1549 24.4783C29.1869 24.4011 29.2163 24.2838 29.2327 24.0433C29.2496 23.7958 29.25 23.4762 29.25 23ZM25.75 18.5C25.75 17.536 25.7484 16.8884 25.6835 16.4054C25.6234 15.9584 25.5209 15.759 25.396 15.6285L25.3839 15.6161V15.6161C25.2536 15.4858 25.056 15.3786 24.5946 15.3165C24.1116 15.2516 23.464 15.25 22.5 15.25H20.75V19.25H25.75V18.5ZM30.75 23C30.75 23.4557 30.7504 23.835 30.7292 24.1453C30.7076 24.4624 30.661 24.7619 30.5407 25.0523L30.5407 25.0525C30.2616 25.7262 29.7262 26.2616 29.0525 26.5407L29.0523 26.5407C28.7619 26.661 28.4624 26.7076 28.1453 26.7292C28.0242 26.7375 27.8926 26.7424 27.75 26.7454V28C27.75 28.4142 27.4142 28.75 27 28.75C26.5858 28.75 26.25 28.4142 26.25 28V26.75H13.75V28C13.75 28.4142 13.4142 28.75 13 28.75C12.5858 28.75 12.25 28.4142 12.25 28V26.7454C12.1074 26.7424 11.9758 26.7375 11.8546 26.7292C11.5376 26.7076 11.2381 26.661 10.9477 26.5407L10.9476 26.5407C10.2738 26.2616 9.73846 25.7262 9.45936 25.0524L9.45933 25.0524C9.33906 24.762 9.29241 24.4625 9.27077 24.1454C9.2496 23.835 9.25 23.4557 9.25 23C9.25 22.5443 9.2496 22.165 9.27077 21.8546C9.29241 21.5375 9.33906 21.238 9.45933 20.9476L9.45936 20.9476L9.47263 20.9161C9.64685 20.5099 9.91474 20.1552 10.25 19.8786C10.25 18.0715 10.2518 16.6367 10.4031 15.511C10.5608 14.3386 10.8929 13.3896 11.6412 12.6413L11.6765 12.6065C12.4193 11.8825 13.3569 11.5583 14.511 11.4031C15.6618 11.2484 17.1356 11.25 19 11.25H21C22.8644 11.25 24.3382 11.2484 25.489 11.4031C26.6614 11.5608 27.6104 11.8929 28.3587 12.6412L28.3935 12.6765C29.1174 13.4193 29.4417 14.3569 29.5969 15.511C29.7482 16.6367 29.7499 18.0715 29.7499 19.8786C30.0852 20.1552 30.3532 20.5098 30.5274 20.9161L30.5407 20.9476L30.5407 20.9477L30.5518 20.975C30.6639 21.2568 30.7083 21.5475 30.7292 21.8546C30.7504 22.165 30.75 22.5443 30.75 23ZM14.25 19.25H19.25V15.25H17.5C16.536 15.25 15.8884 15.2516 15.4054 15.3165C14.9439 15.3786 14.7464 15.4858 14.6161 15.6161H14.6161C14.4858 15.7464 14.3786 15.9439 14.3165 16.4054C14.2516 16.8884 14.25 17.536 14.25 18.5V19.25ZM27.25 19.2501C27.5965 19.2506 27.8936 19.2536 28.1453 19.2708C28.1803 19.2731 28.215 19.2759 28.2496 19.2789C28.2472 17.7441 28.2303 16.604 28.1102 15.7109C27.975 14.7048 27.7213 14.1251 27.2981 13.7019L27.298 13.7019C26.8749 13.2787 26.2953 13.025 25.2892 12.8897C24.2615 12.7516 22.9068 12.75 21 12.75H19C17.0932 12.75 15.7385 12.7516 14.7108 12.8897C13.7048 13.025 13.1251 13.2787 12.7019 13.7019L12.7019 13.7019C12.2787 14.1251 12.025 14.7048 11.8898 15.7109C11.7697 16.604 11.7528 17.7441 11.7504 19.2789C11.7849 19.2759 11.8197 19.2731 11.8546 19.2708C12.1064 19.2536 12.4035 19.2506 12.75 19.2501V18.5C12.75 17.5784 12.7484 16.8117 12.8299 16.2055C12.913 15.5875 13.0942 15.0287 13.5343 14.5769L13.5555 14.5555C14.0109 14.1 14.5777 13.9143 15.2055 13.8299C15.8117 13.7484 16.5784 13.75 17.5 13.75H22.5C23.4216 13.75 24.1882 13.7484 24.7945 13.8299C25.4222 13.9143 25.989 14.1 26.4445 14.5555L26.4657 14.5769C26.9058 15.0287 27.087 15.5875 27.1701 16.2055C27.2516 16.8117 27.25 17.5784 27.25 18.5V19.2501Z" fill="#F6F8FD"/></svg>