<svg xmlns:xlink="http://www.w3.org/1999/xlink" xmlns="http://www.w3.org/2000/svg" width="40" height="40" viewBox="0 0 40 40" fill="none"><rect width="40" height="40" rx="20" fill="#D3AF37"/><path d="M16.2957 11.3878C18.299 9.44338 21.4878 9.44327 23.491 11.3878L23.5379 11.4347H23.5389L27.2723 15.1583L27.2781 11.9112C27.279 11.3681 27.7193 10.9282 28.2625 10.9288C28.8058 10.9296 29.2457 11.3709 29.2449 11.9142L29.2371 17.1153L31.0809 18.9523C31.4656 19.3359 31.4664 19.9592 31.0828 20.3439C30.6994 20.7282 30.0768 20.729 29.6922 20.3458L29.2332 19.8888L29.2283 25.1222V25.1241C29.2201 27.9654 26.9123 30.2634 24.0711 30.2599H15.7195C12.8984 30.2634 10.6033 27.9985 10.5623 25.1857V19.88L10.0945 20.3458C9.70977 20.7293 9.08646 20.7285 8.70293 20.3439C8.31934 19.9592 8.3211 19.3359 8.70586 18.9523L10.8514 16.8126L16.2478 11.4347L16.2957 11.3878ZM22.1209 12.7999C20.8705 11.5862 18.8739 11.5963 17.6355 12.8292L12.5291 17.9181V25.1153L12.5301 25.1564C12.5554 26.8949 13.9737 28.2956 15.7176 28.2931H24.0721C25.8285 28.2959 27.2555 26.8748 27.2605 25.1183L27.2684 17.9308L22.1502 12.8292L22.1209 12.7999ZM22.5164 24.2882C23.0596 24.2882 23.4996 24.7285 23.4998 25.2716C23.4998 25.8149 23.0597 26.256 22.5164 26.256H17.2703C16.727 26.256 16.2859 25.8149 16.2859 25.2716C16.2861 24.7285 16.7271 24.2882 17.2703 24.2882H22.5164ZM19.9021 16.2736C20.6896 16.2808 21.4422 16.6011 21.9939 17.1632L22.0193 17.1896C22.5465 17.74 22.8421 18.4726 22.8445 19.2345V19.2804C22.8141 20.9026 21.4796 22.1958 19.8572 22.1759C18.2347 22.1558 16.9322 20.8298 16.9422 19.2071C16.9521 17.5844 18.2707 16.2738 19.8934 16.2736H19.9021ZM19.8885 18.2413C19.3498 18.244 18.9134 18.6797 18.91 19.2189C18.9066 19.7596 19.3407 20.2024 19.8816 20.2091C20.4208 20.2156 20.8642 19.7866 20.8768 19.2482C20.8779 18.984 20.7746 18.7295 20.5896 18.5411C20.4046 18.3528 20.1524 18.245 19.8885 18.2413Z" fill="#F6F8FD"/></svg>