<svg xmlns:xlink="http://www.w3.org/1999/xlink" xmlns="http://www.w3.org/2000/svg" width="252" height="58" viewBox="0 0 252 58" fill="none"><rect x="1" y="1" width="174" height="56" rx="12" stroke="#E2E2E2"/><g clip-path="url(#clip0_2098_1011)"><path d="M46 27C46 34 37 40 37 40C37 40 28 34 28 27C28 24.6131 28.9482 22.3239 30.636 20.636C32.3239 18.9482 34.6131 18 37 18C39.3869 18 41.6761 18.9482 43.364 20.636C45.0518 22.3239 46 24.6131 46 27Z" stroke="#1E1E1E" stroke-width="2.5" stroke-linecap="round" stroke-linejoin="round"/><path d="M37 30C38.6569 30 40 28.6569 40 27C40 25.3431 38.6569 24 37 24C35.3431 24 34 25.3431 34 27C34 28.6569 35.3431 30 37 30Z" stroke="#1E1E1E" stroke-width="2.5" stroke-linecap="round" stroke-linejoin="round"/></g><path d="M58.0114 35V23.3636H60.4716V32.9716H65.4602V35H58.0114ZM70.9872 35.1705C70.1046 35.1705 69.3414 34.983 68.6974 34.608C68.0573 34.2292 67.563 33.7027 67.2145 33.0284C66.866 32.3504 66.6918 31.5644 66.6918 30.6705C66.6918 29.7689 66.866 28.9811 67.2145 28.3068C67.563 27.6288 68.0573 27.1023 68.6974 26.7273C69.3414 26.3485 70.1046 26.1591 70.9872 26.1591C71.8698 26.1591 72.6312 26.3485 73.2713 26.7273C73.9152 27.1023 74.4115 27.6288 74.7599 28.3068C75.1084 28.9811 75.2827 29.7689 75.2827 30.6705C75.2827 31.5644 75.1084 32.3504 74.7599 33.0284C74.4115 33.7027 73.9152 34.2292 73.2713 34.608C72.6312 34.983 71.8698 35.1705 70.9872 35.1705ZM70.9986 33.2955C71.4001 33.2955 71.7353 33.1818 72.0043 32.9545C72.2732 32.7235 72.4759 32.4091 72.6122 32.0114C72.7524 31.6136 72.8224 31.161 72.8224 30.6534C72.8224 30.1458 72.7524 29.6932 72.6122 29.2955C72.4759 28.8977 72.2732 28.5833 72.0043 28.3523C71.7353 28.1212 71.4001 28.0057 70.9986 28.0057C70.5933 28.0057 70.2524 28.1212 69.9759 28.3523C69.7031 28.5833 69.4967 28.8977 69.3565 29.2955C69.2202 29.6932 69.152 30.1458 69.152 30.6534C69.152 31.161 69.2202 31.6136 69.3565 32.0114C69.4967 32.4091 69.7031 32.7235 69.9759 32.9545C70.2524 33.1818 70.5933 33.2955 70.9986 33.2955ZM79.0497 32.4886L79.0554 29.5852H79.4077L82.2031 26.2727H84.9815L81.2259 30.6591H80.652L79.0497 32.4886ZM76.8565 35V23.3636H79.277V35H76.8565ZM82.3111 35L79.7429 31.1989L81.3565 29.4886L85.1463 35H82.3111ZM88.6577 35.1648C88.1009 35.1648 87.6046 35.0682 87.169 34.875C86.7334 34.678 86.3887 34.3883 86.1349 34.0057C85.8849 33.6193 85.7599 33.1383 85.7599 32.5625C85.7599 32.0777 85.849 31.6705 86.027 31.3409C86.205 31.0114 86.4474 30.7462 86.7543 30.5455C87.0611 30.3447 87.4096 30.1932 87.7997 30.0909C88.1937 29.9886 88.6065 29.9167 89.0384 29.875C89.5459 29.822 89.955 29.7727 90.2656 29.7273C90.5762 29.678 90.8016 29.6061 90.9418 29.5114C91.0819 29.4167 91.152 29.2765 91.152 29.0909V29.0568C91.152 28.697 91.0384 28.4186 90.8111 28.2216C90.5876 28.0246 90.2694 27.9261 89.8565 27.9261C89.4209 27.9261 89.0743 28.0227 88.8168 28.2159C88.5592 28.4053 88.3887 28.6439 88.3054 28.9318L86.0668 28.75C86.1804 28.2197 86.4039 27.7614 86.7372 27.375C87.0705 26.9848 87.5005 26.6856 88.027 26.4773C88.5573 26.2652 89.1709 26.1591 89.8679 26.1591C90.3527 26.1591 90.8168 26.2159 91.2599 26.3295C91.7069 26.4432 92.1027 26.6193 92.4474 26.858C92.7959 27.0966 93.0705 27.4034 93.2713 27.7784C93.4721 28.1496 93.5724 28.5947 93.5724 29.1136V35H91.277V33.7898H91.2088C91.0687 34.0625 90.8812 34.303 90.6463 34.5114C90.4115 34.7159 90.1293 34.8769 89.7997 34.9943C89.4702 35.108 89.0895 35.1648 88.6577 35.1648ZM89.3509 33.4943C89.7069 33.4943 90.0213 33.4242 90.294 33.2841C90.5668 33.1402 90.7808 32.947 90.9361 32.7045C91.0914 32.4621 91.169 32.1875 91.169 31.8807V30.9545C91.0933 31.0038 90.9891 31.0492 90.8565 31.0909C90.7277 31.1288 90.5819 31.1648 90.419 31.1989C90.2562 31.2292 90.0933 31.2576 89.9304 31.2841C89.7675 31.3068 89.6198 31.3277 89.4872 31.3466C89.2031 31.3883 88.955 31.4545 88.7429 31.5455C88.5308 31.6364 88.366 31.7595 88.2486 31.9148C88.1312 32.0663 88.0724 32.2557 88.0724 32.483C88.0724 32.8125 88.1918 33.0644 88.4304 33.2386C88.6728 33.4091 88.9796 33.4943 89.3509 33.4943ZM102.712 28.7614L100.496 28.8977C100.458 28.7083 100.376 28.5379 100.251 28.3864C100.126 28.2311 99.9616 28.108 99.7571 28.017C99.5563 27.9223 99.3158 27.875 99.0355 27.875C98.6605 27.875 98.3442 27.9545 98.0866 28.1136C97.8291 28.2689 97.7003 28.4773 97.7003 28.7386C97.7003 28.947 97.7836 29.1231 97.9503 29.267C98.117 29.411 98.4029 29.5265 98.8082 29.6136L100.388 29.9318C101.236 30.1061 101.869 30.3864 102.286 30.7727C102.702 31.1591 102.911 31.6667 102.911 32.2955C102.911 32.8674 102.742 33.3693 102.405 33.8011C102.071 34.233 101.613 34.5701 101.03 34.8125C100.45 35.0511 99.7817 35.1705 99.0241 35.1705C97.8688 35.1705 96.9484 34.9299 96.2628 34.4489C95.581 33.964 95.1813 33.3049 95.0639 32.4716L97.4446 32.3466C97.5166 32.6989 97.6908 32.9678 97.9673 33.1534C98.2438 33.3352 98.598 33.4261 99.0298 33.4261C99.4541 33.4261 99.795 33.3447 100.053 33.1818C100.314 33.0152 100.446 32.8011 100.45 32.5398C100.446 32.3201 100.354 32.1402 100.172 32C99.9901 31.8561 99.7098 31.7462 99.331 31.6705L97.8196 31.3693C96.9673 31.1989 96.3329 30.9034 95.9162 30.483C95.5033 30.0625 95.2969 29.5265 95.2969 28.875C95.2969 28.3144 95.4484 27.8314 95.7514 27.4261C96.0582 27.0208 96.4882 26.7083 97.0412 26.4886C97.598 26.2689 98.2495 26.1591 98.9957 26.1591C100.098 26.1591 100.965 26.392 101.598 26.858C102.234 27.3239 102.606 27.9583 102.712 28.7614ZM104.435 35V26.2727H106.855V35H104.435ZM105.651 25.1477C105.291 25.1477 104.982 25.0284 104.724 24.7898C104.471 24.5473 104.344 24.2576 104.344 23.9205C104.344 23.5871 104.471 23.3011 104.724 23.0625C104.982 22.8201 105.291 22.6989 105.651 22.6989C106.01 22.6989 106.317 22.8201 106.571 23.0625C106.829 23.3011 106.957 23.5871 106.957 23.9205C106.957 24.2576 106.829 24.5473 106.571 24.7898C106.317 25.0284 106.01 25.1477 105.651 25.1477ZM112.543 35V23.3636H115.003V28.4943H115.156L119.344 23.3636H122.293L117.974 28.5739L122.344 35H119.401L116.213 30.2159L115.003 31.6932V35H112.543ZM126.017 35.1648C125.46 35.1648 124.964 35.0682 124.528 34.875C124.093 34.678 123.748 34.3883 123.494 34.0057C123.244 33.6193 123.119 33.1383 123.119 32.5625C123.119 32.0777 123.208 31.6705 123.386 31.3409C123.564 31.0114 123.807 30.7462 124.114 30.5455C124.42 30.3447 124.769 30.1932 125.159 30.0909C125.553 29.9886 125.966 29.9167 126.398 29.875C126.905 29.822 127.314 29.7727 127.625 29.7273C127.936 29.678 128.161 29.6061 128.301 29.5114C128.441 29.4167 128.511 29.2765 128.511 29.0909V29.0568C128.511 28.697 128.398 28.4186 128.17 28.2216C127.947 28.0246 127.629 27.9261 127.216 27.9261C126.78 27.9261 126.434 28.0227 126.176 28.2159C125.919 28.4053 125.748 28.6439 125.665 28.9318L123.426 28.75C123.54 28.2197 123.763 27.7614 124.097 27.375C124.43 26.9848 124.86 26.6856 125.386 26.4773C125.917 26.2652 126.53 26.1591 127.227 26.1591C127.712 26.1591 128.176 26.2159 128.619 26.3295C129.066 26.4432 129.462 26.6193 129.807 26.858C130.155 27.0966 130.43 27.4034 130.631 27.7784C130.831 28.1496 130.932 28.5947 130.932 29.1136V35H128.636V33.7898H128.568C128.428 34.0625 128.241 34.303 128.006 34.5114C127.771 34.7159 127.489 34.8769 127.159 34.9943C126.83 35.108 126.449 35.1648 126.017 35.1648ZM126.71 33.4943C127.066 33.4943 127.381 33.4242 127.653 33.2841C127.926 33.1402 128.14 32.947 128.295 32.7045C128.451 32.4621 128.528 32.1875 128.528 31.8807V30.9545C128.453 31.0038 128.348 31.0492 128.216 31.0909C128.087 31.1288 127.941 31.1648 127.778 31.1989C127.616 31.2292 127.453 31.2576 127.29 31.2841C127.127 31.3068 126.979 31.3277 126.847 31.3466C126.563 31.3883 126.314 31.4545 126.102 31.5455C125.89 31.6364 125.725 31.7595 125.608 31.9148C125.491 32.0663 125.432 32.2557 125.432 32.483C125.432 32.8125 125.551 33.0644 125.79 33.2386C126.032 33.4091 126.339 33.4943 126.71 33.4943ZM132.81 35V26.2727H135.116V27.8125H135.219C135.401 27.3011 135.704 26.8977 136.128 26.6023C136.552 26.3068 137.06 26.1591 137.651 26.1591C138.249 26.1591 138.759 26.3087 139.179 26.608C139.599 26.9034 139.88 27.3049 140.02 27.8125H140.111C140.289 27.3125 140.611 26.9129 141.077 26.6136C141.546 26.3106 142.101 26.1591 142.741 26.1591C143.556 26.1591 144.217 26.4186 144.724 26.9375C145.236 27.4527 145.491 28.1837 145.491 29.1307V35H143.077V29.608C143.077 29.1231 142.948 28.7595 142.69 28.517C142.433 28.2746 142.111 28.1534 141.724 28.1534C141.285 28.1534 140.942 28.2936 140.696 28.5739C140.45 28.8504 140.327 29.2159 140.327 29.6705V35H137.98V29.5568C137.98 29.1288 137.857 28.7879 137.611 28.5341C137.368 28.2803 137.048 28.1534 136.651 28.1534C136.382 28.1534 136.139 28.2216 135.923 28.358C135.711 28.4905 135.543 28.678 135.418 28.9205C135.293 29.1591 135.23 29.4394 135.23 29.7614V35H132.81ZM147.403 35V26.2727H149.824V35H147.403ZM148.619 25.1477C148.259 25.1477 147.951 25.0284 147.693 24.7898C147.439 24.5473 147.312 24.2576 147.312 23.9205C147.312 23.5871 147.439 23.3011 147.693 23.0625C147.951 22.8201 148.259 22.6989 148.619 22.6989C148.979 22.6989 149.286 22.8201 149.54 23.0625C149.797 23.3011 149.926 23.5871 149.926 23.9205C149.926 24.2576 149.797 24.5473 149.54 24.7898C149.286 25.0284 148.979 25.1477 148.619 25.1477Z" fill="black"/><rect x="195" y="1" width="56" height="56" rx="12" stroke="#E2E2E2"/><path fill-rule="evenodd" clip-rule="evenodd" d="M222.295 35.2955L216.243 29.2426C215.447 28.447 215 27.3679 215 26.2426C215 23.8995 216.899 22 219.243 22C220.368 22 221.447 22.447 222.243 23.2426L222.953 23.9529C222.979 23.9789 223.021 23.9789 223.047 23.9529L223.757 23.2426C224.553 22.447 225.632 22 226.757 22C229.101 22 231 23.8995 231 26.2426C231 27.3679 230.553 28.447 229.757 29.2426L223.705 35.2955C223.315 35.6846 222.685 35.6846 222.295 35.2955Z" fill="black"/><defs><clipPath id="clip0_2098_1011"><rect width="24" height="24" fill="white" transform="translate(25 17)"/></clipPath></defs></svg>