<svg xmlns:xlink="http://www.w3.org/1999/xlink" xmlns="http://www.w3.org/2000/svg" width="40" height="40" viewBox="0 0 40 40" fill="none"><rect width="40" height="40" rx="20" fill="#D3AF37"/><path fill-rule="evenodd" clip-rule="evenodd" d="M13.948 9.25H16.9992C16.9995 9.25 16.9989 9.25 16.9992 9.25C16.9995 9.25 17.0005 9.25 17.0008 9.25H19.9993C19.9996 9.25 19.9991 9.25 19.9993 9.25C19.9996 9.25 20.0005 9.25 20.0007 9.25H22.9995H26.5383C27.2079 9.24999 27.7667 9.24997 28.219 9.29599C28.6925 9.34415 29.1318 9.44886 29.5278 9.71346C29.8281 9.9141 30.0859 10.1719 30.2865 10.4722C30.5511 10.8682 30.6559 11.3076 30.704 11.781C30.75 12.2334 30.75 12.7921 30.75 13.4617V13.5383C30.75 14.2079 30.75 14.7667 30.704 15.219C30.6559 15.6925 30.5511 16.1318 30.2865 16.5278C30.0859 16.8281 29.8281 17.0859 29.5278 17.2865C29.1318 17.5511 28.6925 17.6558 28.219 17.704C27.7666 17.75 27.2079 17.75 26.5383 17.75H19C18.5074 17.75 18.2134 17.7516 18.0027 17.7799C17.9061 17.7929 17.8578 17.8082 17.836 17.8172C17.8309 17.8192 17.8276 17.8209 17.8257 17.8219L17.8232 17.8232L17.8219 17.8257C17.8209 17.8276 17.8192 17.8309 17.8172 17.836C17.8082 17.8578 17.7929 17.9061 17.7799 18.0027C17.7516 18.2134 17.75 18.5074 17.75 19V26.5383C17.75 27.2079 17.75 27.7666 17.704 28.219C17.6558 28.6925 17.5511 29.1318 17.2865 29.5278C17.0859 29.8281 16.8281 30.0859 16.5278 30.2865C16.1318 30.5511 15.6925 30.6559 15.219 30.704C14.7667 30.75 14.2079 30.75 13.5383 30.75H13.4617C12.7921 30.75 12.2334 30.75 11.781 30.704C11.3076 30.6559 10.8682 30.5511 10.4722 30.2865C10.1719 30.0859 9.9141 29.8281 9.71346 29.5278C9.44886 29.1318 9.34415 28.6925 9.29599 28.219C9.24997 27.7667 9.24999 27.2079 9.25 26.5383V13.948C9.24997 13.0495 9.24995 12.3003 9.32991 11.7055C9.41432 11.0777 9.59999 10.5109 10.0555 10.0555C10.5109 9.59999 11.0777 9.41432 11.7055 9.32991C12.3003 9.24995 13.0495 9.24997 13.948 9.25ZM10.75 17.75H13C13.4142 17.75 13.75 17.4142 13.75 17C13.75 16.5858 13.4142 16.25 13 16.25H10.75V14C10.75 13.036 10.7516 12.3884 10.8165 11.9054C10.8786 11.4439 10.9858 11.2464 11.1161 11.1161C11.2464 10.9858 11.4439 10.8786 11.9054 10.8165C12.3884 10.7516 13.036 10.75 14 10.75H16.25V13C16.25 13.4142 16.5858 13.75 17 13.75C17.4142 13.75 17.75 13.4142 17.75 13V10.75H19.25V12C19.25 12.4142 19.5858 12.75 20 12.75C20.4142 12.75 20.75 12.4142 20.75 12V10.75H22.25V13C22.25 13.4142 22.5858 13.75 23 13.75C23.4142 13.75 23.75 13.4142 23.75 13V10.75H25.25V12C25.25 12.4142 25.5858 12.75 26 12.75C26.4142 12.75 26.75 12.4142 26.75 12V10.7501C27.3326 10.7508 27.7441 10.7554 28.0672 10.7883C28.422 10.8244 28.586 10.8882 28.6945 10.9607C28.831 11.0519 28.9481 11.1691 29.0393 11.3055C29.1118 11.414 29.1756 11.578 29.2117 11.9328C29.2491 12.3002 29.25 12.7822 29.25 13.5C29.25 14.2178 29.2491 14.6998 29.2117 15.0672C29.1756 15.422 29.1118 15.586 29.0393 15.6945C28.9481 15.831 28.831 15.9481 28.6945 16.0393C28.586 16.1118 28.422 16.1756 28.0672 16.2117C27.6998 16.2491 27.2178 16.25 26.5 16.25H19C18.985 16.25 18.9701 16.25 18.9553 16.25C18.5224 16.25 18.1256 16.2499 17.8028 16.2933C17.4473 16.3411 17.0716 16.4535 16.7626 16.7626C16.4535 17.0716 16.3411 17.4473 16.2933 17.8028C16.2499 18.1256 16.25 18.5224 16.25 18.9553C16.25 18.9701 16.25 18.985 16.25 19V26.5C16.25 27.2178 16.2491 27.6998 16.2117 28.0672C16.1756 28.422 16.1118 28.586 16.0393 28.6945C15.9481 28.831 15.831 28.9481 15.6945 29.0393C15.586 29.1118 15.422 29.1756 15.0672 29.2117C14.6998 29.2491 14.2178 29.25 13.5 29.25C12.7822 29.25 12.3002 29.2491 11.9328 29.2117C11.578 29.1756 11.414 29.1118 11.3055 29.0393C11.1691 28.9481 11.0519 28.831 10.9607 28.6945C10.8882 28.586 10.8244 28.422 10.7883 28.0672C10.7554 27.7441 10.7508 27.3326 10.7501 26.75H12C12.4142 26.75 12.75 26.4142 12.75 26C12.75 25.5858 12.4142 25.25 12 25.25H10.75V23.75H13C13.4142 23.75 13.75 23.4142 13.75 23C13.75 22.5858 13.4142 22.25 13 22.25H10.75V20.75H12C12.4142 20.75 12.75 20.4142 12.75 20C12.75 19.5858 12.4142 19.25 12 19.25H10.75V17.75Z" fill="#F6F8FD"/></svg>