<svg xmlns:xlink="http://www.w3.org/1999/xlink" xmlns="http://www.w3.org/2000/svg" width="59" height="59" viewBox="0 0 59 59" fill="none"><g clip-path="url(#clip0_2090_915)"><path d="M57.3618 40.955L41.0773 24.6706C40.1427 23.736 38.9361 23.173 37.6359 23.0541C37.5193 21.7985 36.9816 20.575 36.0224 19.6156C35.399 18.9921 34.6637 18.5473 33.8807 18.2798C33.9654 18.0205 34.0373 17.7568 34.0964 17.4893C34.3581 17.6086 34.6438 17.6741 34.9369 17.6741C35.4748 17.6741 35.9905 17.4605 36.3709 17.08L40.6116 12.8392C41.4036 12.0474 41.4036 10.7633 40.6116 9.97132L31.51 0.869684C31.1296 0.489379 30.6139 0.275635 30.0761 0.275635C29.5381 0.275635 29.0225 0.489244 28.6422 0.869684L24.4012 5.1105C23.786 5.72577 23.651 6.63712 23.9917 7.38503C22.4351 7.72923 21.005 8.50674 19.8504 9.66131L18.1452 11.3665C16.9906 12.521 16.2131 13.9511 15.8689 15.5078C15.1211 15.167 14.2097 15.3022 13.5944 15.9174L9.35357 20.158C8.97327 20.5383 8.75952 21.0541 8.75952 21.5919C8.75952 22.1297 8.97327 22.6456 9.35357 23.0258L18.4552 32.1274C18.8512 32.5236 19.3701 32.7215 19.8891 32.7215C20.408 32.7215 20.9271 32.5234 21.323 32.1274L25.5638 27.8868C25.9441 27.5064 26.1578 26.9907 26.1578 26.4529C26.1578 26.1598 26.0924 25.8741 25.973 25.6124C26.2406 25.5531 26.5043 25.4812 26.7636 25.3966C27.0312 26.1795 27.476 26.9147 28.0994 27.5382C29.0593 28.4982 30.2839 29.0359 31.5405 29.1522C31.6568 30.4087 32.1944 31.6333 33.1545 32.5933L49.4389 48.8777C50.531 49.97 51.9657 50.516 53.4003 50.516C54.835 50.516 56.2697 49.97 57.3618 48.8777C59.5461 46.6935 59.5461 43.1394 57.3618 40.955ZM30.0759 5.17147L36.3097 11.4052L34.9369 12.7781L28.7032 6.54438L30.0759 5.17147ZM21.0131 14.2344L22.7185 12.5292C23.551 11.6967 24.6578 11.2381 25.8353 11.2381C27.0127 11.2381 28.1195 11.6967 28.9522 12.5292C29.7849 13.3618 30.2433 14.4687 30.2433 15.6461C30.2433 16.8236 29.7847 17.9304 28.9522 18.7631L27.2468 20.4683C26.4143 21.3008 25.3075 21.7594 24.13 21.7594C22.9528 21.7594 21.8458 21.3008 21.0132 20.4683C20.1807 19.6358 19.7221 18.5288 19.7221 17.3514C19.7221 16.174 20.1806 15.0671 21.0131 14.2344ZM19.8892 27.8259L13.6555 21.5922L15.0283 20.2194L21.262 26.4531L19.8892 27.8259ZM30.9674 22.4835C31.5704 21.8806 32.5515 21.8806 33.1543 22.4835C33.7573 23.0865 33.7573 24.0676 33.1543 24.6706C32.5514 25.2736 31.5702 25.2736 30.9673 24.6706C30.3644 24.0676 30.3644 23.0865 30.9674 22.4835ZM54.4939 46.0101C53.8909 46.613 52.9097 46.613 52.3068 46.0101L36.0224 29.7255C35.4194 29.1226 35.4194 28.1413 36.0224 27.5384C36.3144 27.2463 36.7028 27.0853 37.1158 27.0853C37.529 27.0853 37.9173 27.2462 38.2094 27.5384L54.4939 43.8228C55.0968 44.4259 55.0968 45.4071 54.4939 46.0101Z" fill="#2C353A"/><path d="M33.2494 46.9851H31.8891V43.7624C31.8891 43.0158 31.2838 42.4104 30.5372 42.4104H4.7405C3.99381 42.4104 3.38854 43.0158 3.38854 43.7624V46.9851H2.02793C0.907973 46.9851 0 47.8931 0 49.0131V56.6966C0 57.8166 0.907973 58.7246 2.02793 58.7246H33.2494C34.3694 58.7246 35.2774 57.8166 35.2774 56.6966V49.0131C35.2774 47.893 34.3694 46.9851 33.2494 46.9851ZM6.09245 45.1143H29.1852V46.9851H6.09245V45.1143ZM31.2215 54.6687H4.05587V51.041H31.2215V54.6687Z" fill="#2C353A"/></g><defs><clipPath id="clip0_2090_915"><rect width="59" height="59" fill="white"/></clipPath></defs></svg>