<svg xmlns:xlink="http://www.w3.org/1999/xlink" xmlns="http://www.w3.org/2000/svg" width="59" height="59" viewBox="0 0 59 59" fill="none"><path d="M29.5001 0L3.44434 15.0423C3.44434 20.5132 3.96358 25.2908 4.83372 29.5C10.2109 55.5108 29.5001 59 29.5001 59C29.5001 59 48.7891 55.5108 54.1664 29.5C55.0365 25.2908 55.5557 20.5133 55.5557 15.0423L29.5001 0ZM29.5136 53.7825C29.5095 53.7811 29.5041 53.7793 29.5001 53.778V48.2846V29.5H16.2215H10.5004C9.73175 26.0732 9.22023 22.1819 9.07215 17.7542L29.4999 5.96084H29.5001V11.9219V29.5H42.7832H48.5017C44.4385 47.6384 33.1099 52.6361 29.5136 53.7825Z" fill="#2C353A"/></svg>