<svg xmlns:xlink="http://www.w3.org/1999/xlink" xmlns="http://www.w3.org/2000/svg" width="59" height="53" viewBox="0 0 59 53" fill="none"><path d="M20.2517 4.12005C25.4009 -0.878609 33.5985 -0.878507 38.7478 4.12005L38.8699 4.24017L38.8709 4.24212L48.4685 13.8095L48.4812 5.46575C48.4833 4.06931 49.6167 2.93837 51.0135 2.94036C52.4097 2.94248 53.5397 4.07634 53.5379 5.47259L53.5183 18.8408L58.2566 23.5634C59.2455 24.5496 59.2476 26.1508 58.2615 27.1396C57.2757 28.1281 55.6751 28.1305 54.6863 27.1445L53.5076 25.9697L53.4939 39.4228C53.4939 39.4241 53.4939 39.4254 53.4939 39.4267C53.4731 46.7305 47.5416 52.6382 40.2381 52.6288H18.7722C11.521 52.6379 5.62183 46.8158 5.51639 39.5859L5.51541 39.414V25.9452L4.31326 27.1445C3.3244 28.1304 1.72402 28.128 0.73807 27.1396C-0.247839 26.1508 -0.245829 24.5496 0.742952 23.5634L6.25858 18.0644L6.26834 18.0546L20.1287 4.24114L20.1297 4.24017L20.2517 4.12005ZM35.2264 7.74993C32.0124 4.63012 26.8811 4.655 23.698 7.82415L10.573 20.9052V39.5107C10.6381 43.9797 14.2855 47.5791 18.7683 47.5722H40.242C44.7566 47.5793 48.4244 43.927 48.4373 39.412L48.4558 20.9374L35.3015 7.82415L35.2264 7.74993ZM36.243 37.2792C37.6392 37.2794 38.7713 38.4112 38.7713 39.8075C38.7712 41.2038 37.6392 42.3357 36.243 42.3359H22.7566C21.3604 42.3357 20.2284 41.2038 20.2283 39.8075C20.2283 38.4112 21.3603 37.2794 22.7566 37.2792H36.243ZM29.5232 16.6796C31.5471 16.6983 33.481 17.5201 34.8992 18.9648L34.9656 19.0331C36.3205 20.4479 37.0795 22.3298 37.0857 24.288V24.3827C37.0857 24.3906 37.0849 24.3984 37.0847 24.4062C37.0069 28.5762 33.5775 31.901 29.407 31.8495C25.2366 31.798 21.8891 28.3896 21.9148 24.2187C21.9403 20.0477 25.3289 16.6803 29.4998 16.6796H29.5232ZM29.4881 21.7363C28.1033 21.743 26.9811 22.8629 26.9724 24.249V24.2499C26.964 25.6396 28.0792 26.7757 29.4695 26.7929C30.8558 26.8099 31.9961 25.7078 32.0281 24.3232C32.031 23.6444 31.7661 22.9918 31.2908 22.5077L31.1043 22.3359C30.6523 21.9581 30.0819 21.7445 29.4881 21.7363Z" fill="#2C353A"/></svg>