<svg xmlns:xlink="http://www.w3.org/1999/xlink" xmlns="http://www.w3.org/2000/svg" width="59" height="58" viewBox="0 0 59 58" fill="none"><path fill-rule="evenodd" clip-rule="evenodd" d="M19.6667 5.45652C13.22 5.45652 7.375 11.7417 7.375 20.3261C7.375 27.8009 11.8067 33.5326 17.2084 34.8893V24.1307L10.928 19.9099L13.6553 15.7858L18.9849 19.3677L22.5379 13.9949L26.6287 16.7443L22.125 23.5548V34.8893C27.5268 33.5326 31.9583 27.8009 31.9583 20.3261C31.9583 11.7417 26.1134 5.45652 19.6667 5.45652ZM2.45833 20.3261C2.45833 30.0029 8.62032 38.5674 17.2084 39.9559V52.5435H0V57.5H59V52.5435H51.625V47.587L49.1667 45.1087H29.5L27.0417 47.587V52.5435H22.125V39.9559C30.7131 38.5674 36.875 30.0029 36.875 20.3261C36.875 9.7486 29.5125 0.5 19.6667 0.5C9.82091 0.5 2.45833 9.7486 2.45833 20.3261ZM31.9583 52.5435H46.7083V50.0652H31.9583V52.5435Z" fill="#2C353A"/></svg>