<svg xmlns:xlink="http://www.w3.org/1999/xlink" xmlns="http://www.w3.org/2000/svg" width="59" height="48" viewBox="0 0 59 48" fill="none"><path d="M59 34.6667C59 35.3739 58.7175 36.0522 58.2145 36.5523C57.7116 37.0524 57.0294 37.3333 56.3182 37.3333H2.68182C1.97056 37.3333 1.28842 37.0524 0.785486 36.5523C0.282548 36.0522 0 35.3739 0 34.6667C0 33.9594 0.282548 33.2811 0.785486 32.7811C1.28842 32.281 1.97056 32 2.68182 32H56.3182C57.0294 32 57.7116 32.281 58.2145 32.7811C58.7175 33.2811 59 33.9594 59 34.6667ZM45.5909 48C46.3022 48 46.9843 47.7191 47.4872 47.219C47.9902 46.7189 48.2727 46.0406 48.2727 45.3333C48.2727 44.6261 47.9902 43.9478 47.4872 43.4477C46.9843 42.9476 46.3022 42.6667 45.5909 42.6667H13.4091C12.6978 42.6667 12.0157 42.9476 11.5128 43.4477C11.0098 43.9478 10.7273 44.6261 10.7273 45.3333C10.7273 46.0406 11.0098 46.7189 11.5128 47.219C12.0157 47.7191 12.6978 48 13.4091 48H45.5909ZM16.0909 24C16.0909 24.7072 16.3735 25.3855 16.8764 25.8856C17.3793 26.3857 18.0615 26.6667 18.7727 26.6667C19.484 26.6667 20.1661 26.3857 20.6691 25.8856C21.172 25.3855 21.4545 24.7072 21.4545 24C21.4545 21.8783 22.3022 19.8434 23.811 18.3431C25.3198 16.8429 27.3662 16 29.5 16C31.6338 16 33.6802 16.8429 35.189 18.3431C36.6978 19.8434 37.5455 21.8783 37.5455 24C37.5455 24.7072 37.828 25.3855 38.3309 25.8856C38.8339 26.3857 39.516 26.6667 40.2273 26.6667C40.9385 26.6667 41.6207 26.3857 42.1236 25.8856C42.6265 25.3855 42.9091 24.7072 42.9091 24C42.9091 20.4638 41.4964 17.0724 38.9817 14.5719C36.467 12.0714 33.0563 10.6667 29.5 10.6667C25.9437 10.6667 22.533 12.0714 20.0183 14.5719C17.5036 17.0724 16.0909 20.4638 16.0909 24ZM26.8182 5.33333C26.8182 6.04058 27.1007 6.71885 27.6037 7.21895C28.1066 7.71905 28.7887 8 29.5 8C30.2113 8 30.8934 7.71905 31.3963 7.21895C31.8993 6.71885 32.1818 6.04058 32.1818 5.33333V2.66667C32.1818 1.95942 31.8993 1.28115 31.3963 0.781048C30.8934 0.280951 30.2113 0 29.5 0C28.7887 0 28.1066 0.280951 27.6037 0.781048C27.1007 1.28115 26.8182 1.95942 26.8182 2.66667V5.33333ZM45.5909 24C45.5909 24.7072 45.8735 25.3855 46.3764 25.8856C46.8793 26.3857 47.5615 26.6667 48.2727 26.6667H50.9545C51.6658 26.6667 52.3479 26.3857 52.8509 25.8856C53.3538 25.3855 53.6364 24.7072 53.6364 24C53.6364 23.2928 53.3538 22.6145 52.8509 22.1144C52.3479 21.6143 51.6658 21.3333 50.9545 21.3333H48.2727C47.5615 21.3333 46.8793 21.6143 46.3764 22.1144C45.8735 22.6145 45.5909 23.2928 45.5909 24ZM8.04545 21.3333C7.33419 21.3333 6.65206 21.6143 6.14912 22.1144C5.64618 22.6145 5.36364 23.2928 5.36364 24C5.36364 24.7072 5.64618 25.3855 6.14912 25.8856C6.65206 26.3857 7.33419 26.6667 8.04545 26.6667H10.7273C11.4385 26.6667 12.1207 26.3857 12.6236 25.8856C13.1265 25.3855 13.4091 24.7072 13.4091 24C13.4091 23.2928 13.1265 22.6145 12.6236 22.1144C12.1207 21.6143 11.4385 21.3333 10.7273 21.3333H8.04545ZM12.4329 7.02933C11.9301 7.52941 11.6477 8.20756 11.6477 8.91467C11.6477 9.62177 11.9301 10.2999 12.4329 10.8L14.329 12.6853C14.8348 13.1711 15.5122 13.4399 16.2153 13.4338C16.9185 13.4277 17.5911 13.1473 18.0884 12.6529C18.5856 12.1584 18.8677 11.4896 18.8738 10.7904C18.8799 10.0912 18.6096 9.41761 18.121 8.91467L16.225 7.02933C15.7221 6.52941 15.0401 6.24857 14.329 6.24857C13.6178 6.24857 12.9358 6.52941 12.4329 7.02933ZM42.775 7.02933L40.879 8.91467C40.6228 9.16066 40.4185 9.45491 40.278 9.78025C40.1374 10.1056 40.0634 10.4555 40.0603 10.8096C40.0572 11.1637 40.1251 11.5148 40.2599 11.8425C40.3948 12.1703 40.5939 12.468 40.8457 12.7184C41.0975 12.9688 41.3969 13.1668 41.7265 13.3009C42.0561 13.4349 42.4093 13.5024 42.7654 13.4993C43.1214 13.4963 43.4733 13.4227 43.8005 13.2829C44.1277 13.1432 44.4237 12.94 44.671 12.6853L46.5671 10.8C46.8232 10.554 47.0275 10.2598 47.1681 9.93441C47.3086 9.60907 47.3826 9.25915 47.3857 8.90507C47.3888 8.55099 47.321 8.19985 47.1861 7.87212C47.0513 7.5444 46.8521 7.24666 46.6003 6.99628C46.3485 6.7459 46.0491 6.54789 45.7195 6.41381C45.3899 6.27973 45.0368 6.21226 44.6807 6.21533C44.3246 6.21841 43.9727 6.29197 43.6455 6.43173C43.3183 6.57149 43.0224 6.77464 42.775 7.02933Z" fill="#2C353A"/></svg>